<?xml version="1.0" standalone="no"?>
<!DOCTYPE svg PUBLIC "-//W3C//DTD SVG 20010904//EN"
 "http://www.w3.org/TR/2001/REC-SVG-20010904/DTD/svg10.dtd">
<svg version="1.0" xmlns="http://www.w3.org/2000/svg"
 width="1280.000000pt" height="869.000000pt" viewBox="0 0 1280.000000 869.000000"
 preserveAspectRatio="xMidYMid meet">
<metadata>
Created by potrace 1.15, written by Peter Selinger 2001-2017
</metadata>
<g transform="translate(0.000000,869.000000) scale(0.100000,-0.100000)"
fill="#000000" stroke="none">
<path d="M254 8675 c-4 -8 1 -46 11 -84 21 -85 18 -117 -10 -113 -148 22 -266
-36 -252 -125 6 -33 70 -184 148 -348 85 -180 278 -443 488 -667 76 -82 196
-178 221 -178 30 -1 106 -42 204 -112 106 -76 231 -138 281 -138 71 0 183 -76
320 -215 87 -88 177 -155 210 -155 39 0 111 -57 188 -147 81 -96 147 -156 267
-243 247 -180 746 -662 860 -830 110 -163 197 -331 378 -725 60 -132 202 -433
315 -670 382 -803 482 -1039 494 -1174 8 -83 32 -113 119 -141 85 -29 119 -57
110 -93 -13 -54 -265 -271 -384 -331 -117 -59 -249 -77 -682 -96 -739 -32
-921 -80 -953 -248 -14 -71 29 -112 204 -196 103 -49 123 -63 173 -119 64 -73
115 -103 250 -144 103 -31 159 -66 196 -120 33 -49 117 -92 252 -127 290 -77
539 -208 601 -317 l21 -36 -58 -174 c-32 -96 -85 -232 -117 -304 -92 -206 -96
-255 -23 -290 45 -21 70 -9 153 74 126 126 263 324 331 481 41 94 73 145 102
164 42 26 479 49 493 26 8 -14 -9 -40 -110 -170 -143 -182 -182 -273 -192
-449 -3 -60 -3 -116 0 -124 5 -12 34 -1 149 60 181 94 303 187 437 333 58 63
129 137 156 164 170 166 376 264 605 286 167 16 221 28 297 67 37 20 97 51
133 69 42 21 92 37 140 44 137 21 179 31 204 51 59 46 36 130 -64 228 -77 76
-184 147 -370 246 -185 98 -273 150 -306 179 l-27 23 52 114 c29 62 68 135 87
160 103 140 301 259 551 329 141 40 278 58 518 69 113 5 217 15 240 23 48 16
80 60 90 123 8 57 49 106 107 128 24 9 133 34 243 56 110 22 369 81 575 131
206 50 481 115 610 145 129 29 303 72 385 95 185 51 301 60 450 37 138 -22
248 -33 550 -57 410 -31 583 -69 759 -165 213 -116 533 -213 841 -257 50 -6
155 -12 235 -12 161 -1 228 14 270 59 l24 25 -18 74 c-9 40 -21 110 -25 155
-10 92 -34 147 -104 239 -156 201 -509 511 -776 680 -172 108 -356 189 -538
238 -83 22 -123 26 -258 28 -155 3 -162 4 -231 34 -235 103 -666 49 -1339
-169 -485 -157 -952 -348 -1829 -748 l-440 -200 -95 58 c-248 152 -282 159
-871 171 -429 9 -537 18 -624 51 -113 42 -170 138 -311 524 -207 569 -392
1227 -416 1485 -16 175 -87 432 -201 735 -69 182 -138 318 -203 400 -147 183
-528 573 -715 731 -233 196 -467 337 -1013 610 -768 385 -1088 511 -1550 614
-27 6 -158 29 -290 51 -311 52 -399 71 -543 119 -130 44 -152 47 -160 25z
m2636 -986 c47 -19 132 -63 190 -98 58 -35 175 -107 260 -159 253 -154 414
-284 646 -518 149 -151 312 -343 432 -511 173 -242 270 -444 338 -702 28 -107
29 -121 11 -121 -19 0 -95 133 -173 300 -155 335 -258 477 -722 997 -193 216
-367 352 -742 578 -203 122 -388 245 -395 263 -8 22 54 11 155 -29z m-651
-235 c49 -10 32 -27 -50 -51 -72 -21 -171 -29 -203 -17 -13 5 -24 44 -13 44 1
0 20 7 42 15 41 15 169 20 224 9z m48 -135 c22 -8 24 -12 13 -19 -19 -12 -151
-12 -170 0 -37 23 101 41 157 19z m339 -70 c10 -17 -12 -26 -89 -33 -89 -8
-111 -25 -103 -79 8 -49 -4 -70 -58 -102 -87 -51 -202 -40 -194 18 4 27 59 45
141 46 31 1 57 5 57 10 0 4 -45 23 -100 40 -55 17 -100 36 -100 41 0 12 108
38 260 63 56 9 179 7 186 -4z m510 -89 c34 -13 22 -28 -32 -41 -94 -23 -514
-22 -514 1 0 28 484 63 546 40z m379 -210 c14 -5 23 -14 20 -20 -8 -13 -155
-13 -175 0 -36 23 100 41 155 20z m-961 -72 c15 -25 -17 -55 -77 -73 -54 -16
-232 -21 -241 -6 -6 10 28 43 64 61 80 42 232 52 254 18z m465 -49 c49 -17 39
-49 -24 -72 -80 -31 -375 -37 -375 -8 0 5 26 20 58 34 108 48 271 70 341 46z
m559 -4 c29 -13 34 -18 22 -25 -20 -13 -111 -12 -130 0 -13 9 -12 12 4 25 25
19 57 19 104 0z m-1114 -146 c-93 -45 -208 -70 -300 -67 l-79 3 60 28 c94 45
189 66 290 66 l90 -1 -61 -29z m416 -47 c0 -10 -226 -80 -360 -112 -139 -33
-200 -24 -128 19 76 47 488 125 488 93z m160 -81 c0 -41 -315 -151 -432 -151
-56 0 -61 12 -15 40 108 66 447 150 447 111z m320 -100 c0 -12 -81 -46 -170
-71 -153 -42 -593 -140 -631 -140 -5 0 -9 5 -9 10 0 19 140 78 270 115 246 71
540 118 540 86z m68 -138 c7 -73 -69 -181 -155 -220 -29 -12 -53 -27 -53 -32
0 -5 39 -12 88 -16 130 -11 131 -18 12 -55 -128 -40 -200 -71 -220 -95 -14
-17 -11 -18 70 -12 47 3 149 21 227 41 206 51 343 65 343 36 0 -24 -503 -190
-575 -190 -87 0 -181 81 -157 135 6 13 45 43 88 68 42 25 72 47 68 49 -5 3
-52 -1 -104 -8 -210 -28 -303 -11 -354 67 -22 35 -12 56 43 83 89 46 598 189
651 183 20 -2 26 -8 28 -34z m745 -368 c159 -24 307 -82 307 -121 0 -19 -46
-18 -231 6 -228 31 -315 58 -307 98 6 33 85 39 231 17z m-483 -176 c-47 -16
-164 -55 -260 -85 -253 -81 -328 -84 -251 -10 50 48 202 85 476 115 123 13
126 12 35 -20z m552 -54 c39 -15 1 -25 -97 -25 -107 0 -140 12 -83 29 34 11
149 8 180 -4z m-482 -60 c-28 -34 -325 -178 -432 -210 -40 -12 -48 -12 -58 1
-21 24 -2 60 47 92 98 62 307 130 407 131 42 1 47 -1 36 -14z m733 4 c51 -14
42 -33 -18 -37 -86 -6 -125 16 -67 36 36 14 41 14 85 1z m-634 -132 c20 -25
-30 -53 -217 -121 -190 -69 -238 -78 -249 -49 -10 26 47 66 160 111 152 60
283 85 306 59z m-119 -176 c0 -37 -198 -128 -216 -100 -10 16 15 37 88 74 68
34 128 46 128 26z m625 -66 c103 -21 208 -57 212 -71 9 -28 -138 -19 -276 15
-118 30 -186 35 -269 17 -72 -15 -222 -79 -222 -95 0 -4 30 -1 66 6 41 8 77
10 92 5 23 -7 25 -12 26 -81 1 -70 2 -74 34 -101 44 -37 123 -51 322 -59 144
-6 150 -7 85 -14 -281 -32 -421 -65 -465 -112 -43 -46 -5 -48 172 -10 14 4 29
2 32 -4 8 -12 -45 -54 -202 -164 -62 -42 -112 -82 -112 -87 0 -10 15 -8 90 11
48 12 110 11 110 -2 0 -16 -57 -64 -108 -90 -92 -46 -158 -23 -169 58 -7 56
17 101 89 168 33 31 58 59 55 62 -3 3 -49 -4 -102 -16 -132 -29 -138 -28 -87
19 79 71 161 118 235 135 42 9 27 30 -25 33 -29 2 -78 -7 -139 -27 -52 -16
-105 -31 -119 -33 -23 -3 -25 0 -25 36 0 35 -3 40 -32 50 -17 6 -35 14 -38 18
-9 8 9 41 58 106 22 29 37 56 33 59 -4 4 -41 -5 -84 -19 -51 -17 -78 -22 -81
-15 -6 17 97 103 164 136 66 33 179 66 271 81 85 13 316 5 409 -15z m132 -199
c34 -9 91 -29 125 -46 l63 -30 -115 5 c-67 2 -144 12 -185 23 -115 32 -215 64
-215 69 0 11 267 -6 327 -21z m617 -915 c144 -482 232 -671 375 -803 68 -64
138 -100 249 -130 71 -19 115 -21 552 -28 474 -7 475 -7 561 -33 195 -59 276
-110 439 -276 93 -94 147 -140 210 -178 84 -51 149 -107 138 -119 -29 -28
-367 -48 -673 -40 -286 8 -388 21 -394 51 -5 28 -19 35 -70 35 -41 0 -48 -4
-101 -59 -64 -67 -93 -79 -215 -87 -104 -8 -210 14 -277 57 -27 17 -51 29 -54
26 -3 -3 2 -30 11 -61 9 -31 15 -68 13 -82 -3 -28 -4 -29 -248 -89 -23 -6 -22
-4 9 22 83 67 87 72 71 83 -22 15 -87 12 -120 -5 -33 -17 -46 -51 -35 -92 10
-42 93 -117 150 -138 28 -10 66 -25 85 -34 l35 -16 -67 -3 c-52 -2 -83 3 -140
23 -142 51 -170 57 -246 51 -49 -3 -89 -12 -120 -28 -44 -21 -47 -25 -44 -58
3 -52 -21 -63 -153 -69 l-110 -6 -14 -31 c-18 -41 -66 -65 -209 -104 -173 -46
-225 -79 -274 -169 -24 -43 -59 -55 -106 -36 -20 9 -45 23 -56 33 -36 32 -76
105 -76 139 0 81 87 182 310 363 261 211 363 334 485 585 95 195 167 365 161
380 -6 16 -68 23 -274 34 -90 5 -165 11 -168 14 -3 3 36 14 85 26 50 11 109
30 130 41 106 53 90 140 -36 208 -48 25 -215 90 -293 115 -36 11 206 19 267 9
97 -16 130 -43 188 -151 45 -86 101 -151 128 -151 7 0 18 4 26 9 18 12 6 63
-75 303 -88 261 -146 490 -175 692 -12 89 -39 362 -38 396 0 14 27 -71 60
-189 32 -117 88 -311 123 -430z m-434 541 c65 -22 131 -64 118 -77 -13 -13
-533 79 -553 98 -6 6 60 7 180 4 158 -4 201 -8 255 -25z m-51 -168 c69 -15
161 -64 161 -85 0 -8 -14 -9 -46 -4 -51 7 -239 62 -269 78 -19 10 -19 10 0 18
32 12 81 10 154 -7z m-511 -140 c3 -26 -5 -38 -51 -80 -57 -52 -154 -110 -165
-99 -13 13 61 136 106 176 36 31 53 39 76 37 27 -3 31 -8 34 -34z m294 19 c39
-35 11 -103 -43 -103 -30 0 -59 31 -59 62 0 25 35 58 62 58 12 0 30 -7 40 -17z
m-255 -179 c15 -39 -75 -140 -147 -165 -36 -13 -51 -2 -42 33 7 28 96 116 134
133 43 18 47 18 55 -1z m667 -75 c18 -17 -6 -24 -84 -24 -74 0 -101 7 -87 21
22 22 149 25 171 3z m5393 -60 c25 -9 26 -12 11 -20 -10 -5 -86 -25 -170 -44
-286 -66 -527 -140 -834 -258 -238 -91 -380 -153 -929 -404 -637 -292 -852
-381 -843 -350 15 45 668 373 1141 571 685 288 1358 510 1559 515 20 1 49 -4
65 -10z m874 -10 c31 -31 112 -206 154 -334 67 -200 94 -387 61 -414 -25 -21
-32 -4 -140 349 -36 118 -79 255 -96 304 -16 50 -30 96 -30 103 0 20 27 16 51
-8z m-6326 -56 c64 -16 125 -48 125 -65 0 -8 -32 -8 -107 -2 -60 4 -170 8
-245 9 l-137 0 -120 -62 c-122 -64 -151 -73 -151 -50 0 41 115 131 202 158
127 40 304 45 433 12z m5747 -73 c11 -22 21 -83 28 -162 11 -132 25 -215 59
-358 35 -144 24 -216 -25 -155 -32 41 -58 133 -104 373 -44 234 -48 286 -24
320 21 31 45 24 66 -18z m146 -4 c41 -46 57 -137 48 -270 -12 -187 -26 -204
-44 -52 -7 57 -21 146 -32 197 -21 99 -25 159 -11 159 5 0 22 -15 39 -34z
m893 -62 c99 -145 235 -526 193 -541 -26 -9 -130 184 -229 426 -55 135 -58
161 -14 161 10 0 32 -20 50 -46z m-690 -71 c58 -126 96 -311 80 -384 -13 -56
-25 -67 -50 -45 -26 23 -38 87 -51 256 -9 120 -16 161 -44 260 l-7 25 22 -25
c12 -14 35 -53 50 -87z m-707 43 c44 -100 60 -182 60 -321 1 -138 -9 -214 -25
-198 -17 17 -50 145 -64 253 -20 146 -19 320 1 320 2 0 15 -24 28 -54z m-313
-361 c9 -89 9 -120 -2 -164 -15 -59 -28 -71 -52 -47 -35 36 -56 268 -42 481
l8 120 38 -140 c23 -83 44 -185 50 -250z m135 331 c57 -125 70 -350 27 -490
-5 -18 -6 -18 -15 -2 -20 36 -62 546 -44 546 4 0 18 -24 32 -54z m-5428 24
c-2 -6 -39 -32 -83 -58 -106 -64 -105 -67 8 -116 31 -14 57 -30 57 -36 0 -20
-66 -43 -103 -36 -44 8 -112 57 -137 99 -59 96 8 156 173 157 55 0 87 -4 85
-10z m6894 -141 c23 -30 128 -323 128 -355 0 -12 -7 -27 -15 -34 -21 -17 -44
4 -83 78 -66 126 -110 349 -66 340 9 -2 26 -15 36 -29z m433 -71 c73 -86 124
-230 91 -257 -13 -11 -20 -11 -41 3 -35 23 -54 55 -101 170 -30 72 -39 105
-32 114 19 22 46 12 83 -30z m-2490 -24 c15 -30 20 -65 23 -157 5 -132 -1
-148 -41 -122 -42 27 -60 89 -55 198 4 131 32 162 73 81z m-344 -95 c11 -39
10 -195 -3 -336 -6 -73 -13 -132 -14 -130 -7 7 -54 381 -54 428 0 28 5 59 11
70 9 18 13 19 32 6 12 -8 25 -25 28 -38z m1343 26 c8 -8 18 -35 22 -60 6 -46
-14 -245 -26 -245 -3 0 -18 47 -33 104 -26 101 -33 168 -21 200 8 20 38 21 58
1z m-5854 -70 c0 -8 -10 -23 -22 -34 -23 -22 -116 -57 -125 -47 -8 8 35 54 72
77 36 23 75 25 75 4z m4682 -136 c9 -24 17 -59 17 -78 1 -38 -18 -111 -29
-111 -4 0 -13 28 -21 63 -7 34 -23 93 -35 132 -12 38 -20 74 -17 78 10 16 68
-42 85 -84z m-4622 16 c0 -56 -116 -165 -175 -165 -46 0 25 116 100 161 37 23
75 25 75 4z m4290 -201 c40 -46 38 -78 -7 -82 -49 -5 -79 50 -53 99 15 27 23
24 60 -17z m-4202 -26 c18 -38 38 -47 134 -59 113 -14 148 -26 148 -50 0 -44
-143 -87 -242 -74 -62 9 -76 25 -59 71 7 20 10 38 7 41 -3 4 -36 -1 -72 -10
-75 -18 -94 -14 -94 17 0 27 32 59 80 80 50 22 82 17 98 -16z m3316 -100 c22
-31 20 -76 -4 -115 -24 -40 -51 -42 -79 -7 -31 39 -29 107 4 140 28 28 51 22
79 -18z m146 -1 c27 -21 50 -61 50 -86 0 -55 -65 -81 -94 -39 -50 70 -14 171
44 125z m-3282 -265 c7 -45 -126 -182 -163 -168 -23 8 -19 74 8 120 39 69 147
103 155 48z m714 -652 c64 -21 134 -48 155 -59 l38 -19 -39 -7 c-54 -11 -167
2 -239 26 -59 20 -137 71 -137 90 0 22 109 7 222 -31z m629 -56 c49 -44 -8
-134 -86 -134 -30 0 -75 53 -75 89 0 27 19 52 50 64 26 11 91 0 111 -19z
m-2878 -115 c51 -14 42 -33 -18 -37 -83 -5 -125 17 -72 38 30 12 45 12 90 -1z
m477 -60 c57 -12 64 -24 19 -33 -60 -12 -159 -3 -159 15 0 4 19 12 43 17 23 6
43 10 44 11 1 1 25 -4 53 -10z m1325 -69 c42 -16 19 -30 -50 -30 -63 0 -91 14
-64 31 19 12 82 11 114 -1z m-1728 -85 c25 -17 37 -63 28 -103 l-6 -28 -127
36 c-132 38 -178 57 -167 68 8 8 176 39 220 41 17 0 40 -6 52 -14z m2162 -11
c72 -16 112 -37 98 -51 -17 -16 -193 -16 -250 1 -56 16 -84 37 -72 56 9 15
147 12 224 -6z m474 0 c12 -12 -24 -79 -66 -123 -60 -62 -138 -118 -214 -153
-52 -25 -87 -33 -167 -40 -55 -5 -138 -18 -184 -29 -46 -11 -86 -18 -89 -15
-8 8 85 64 136 81 25 8 82 19 126 25 103 13 203 61 297 143 83 73 139 117 148
117 4 0 9 -3 13 -6z m-1425 -88 c71 -67 127 -96 187 -96 l46 0 -3 43 -3 42 70
-2 c76 -1 202 -35 322 -84 95 -40 95 -54 1 -45 -146 13 -286 19 -313 12 -22
-6 -26 -11 -21 -31 8 -33 -23 -48 -88 -43 -90 7 -214 84 -276 170 -71 97 -14
122 78 34z m-335 -28 c43 -31 38 -71 -15 -102 -99 -58 -621 -172 -667 -146
-35 19 171 90 407 139 79 16 157 38 175 49 29 17 32 23 30 60 -2 40 -1 42 20
31 12 -7 34 -21 50 -31z m-378 -49 c-156 -51 -215 -60 -400 -64 l-180 -4 115
29 c159 42 275 58 410 58 l115 1 -60 -20z m2259 -53 c-9 -39 19 -79 175 -241
150 -155 206 -234 184 -256 -20 -20 -106 38 -251 169 -146 133 -212 182 -248
182 -28 0 -36 22 -23 58 21 56 92 111 147 112 19 0 21 -4 16 -24z m-2124 -187
c58 -13 90 -43 90 -83 0 -17 -4 -36 -8 -42 -12 -19 -50 -34 -67 -27 -14 5 -16
14 -11 54 6 45 5 49 -16 54 -20 5 -125 -7 -258 -30 -33 -6 -34 -6 -16 9 36 29
156 68 231 75 6 0 30 -4 55 -10z m1892 -16 c57 -61 97 -180 67 -199 -35 -21
-119 107 -119 182 0 52 14 57 52 17z m-262 -33 c22 -13 -86 -60 -155 -67 -109
-11 -117 51 -10 78 34 9 142 2 165 -11z m986 -34 c87 -40 83 -68 -9 -70 -61 0
-107 23 -107 54 0 20 24 39 50 40 8 0 38 -11 66 -24z m-1992 -92 c3 -8 1 -24
-4 -34 -6 -10 -10 -35 -10 -56 0 -31 7 -43 45 -77 25 -22 45 -44 45 -49 0 -15
-61 -8 -99 12 -64 32 -91 123 -56 190 12 23 23 30 44 30 17 0 31 -6 35 -16z
m392 -26 c-14 -71 -81 -188 -108 -188 -29 0 26 154 71 199 31 31 45 27 37 -11z
m308 -10 c7 -52 -7 -145 -29 -187 -16 -31 -54 -49 -76 -36 -18 12 -5 114 21
166 28 55 59 99 70 99 4 0 11 -19 14 -42z m-199 0 c16 -47 5 -158 -15 -158
-11 0 -20 38 -20 90 0 79 20 117 35 68z m-803 -25 c22 -20 23 -61 1 -85 -34
-38 -103 -11 -103 40 0 54 62 81 102 45z m1874 -10 c44 -48 44 -93 -2 -93 -49
0 -78 55 -54 101 14 26 26 24 56 -8z m-379 -35 c66 -109 72 -182 15 -164 -40
13 -87 151 -69 200 10 26 21 19 54 -36z m-1326 -195 c35 -91 -139 -499 -266
-625 -58 -59 -69 -25 -34 108 66 252 212 544 273 544 9 0 21 -12 27 -27z
m1049 -123 c-51 -100 -186 -266 -323 -397 -130 -124 -197 -154 -197 -89 0 79
389 513 505 562 28 12 30 11 33 -11 2 -13 -6 -42 -18 -65z"/>
<path d="M3195 6203 c-229 -28 -405 -83 -405 -128 0 -22 60 -19 193 9 112 24
289 78 316 95 7 5 10 14 7 20 -7 11 -47 12 -111 4z"/>
<path d="M3813 5048 c-78 -17 -135 -98 -75 -106 25 -4 132 45 172 77 21 18 23
22 10 31 -18 12 -50 11 -107 -2z"/>
<path d="M6855 2909 c-46 -41 -64 -98 -41 -134 9 -14 24 -25 34 -26 43 -3 80
4 114 22 67 34 76 83 24 135 -44 44 -82 45 -131 3z"/>
</g>
</svg>
